<svg preserveAspectRatio="none" width="100%" height="100%" overflow="visible" style="display: block;" viewBox="0 0 64 64" fill="none" xmlns="http://www.w3.org/2000/svg">
<g id="Icon">
<path id="Vector" d="M5.33333 26.6667C5.33333 26.6667 13.3333 18.6667 13.3333 5.33333" stroke="var(--stroke-0, #F4BF4F)" stroke-width="4" stroke-linecap="round" stroke-linejoin="round"/>
<path id="Vector_2" d="M58.6667 26.6667C58.6667 26.6667 50.6667 18.6667 50.6667 5.33333" stroke="var(--stroke-0, #F4BF4F)" stroke-width="4" stroke-linecap="round" stroke-linejoin="round"/>
<path id="Vector_3" d="M26.6667 5.33333C26.6667 17.0667 17.0667 26.6667 5.33333 26.6667" stroke="var(--stroke-0, #F4BF4F)" stroke-width="4" stroke-linecap="round" stroke-linejoin="round"/>
<path id="Vector_4" d="M37.3333 5.33333C37.3333 17.0667 46.9333 26.6667 58.6667 26.6667" stroke="var(--stroke-0, #F4BF4F)" stroke-width="4" stroke-linecap="round" stroke-linejoin="round"/>
<path id="Vector_5" d="M5.33333 26.6667C5.33333 26.6667 10.6667 32 10.6667 40" stroke="var(--stroke-0, #F4BF4F)" stroke-width="4" stroke-linecap="round" stroke-linejoin="round"/>
<path id="Vector_6" d="M58.6667 26.6667C58.6667 26.6667 53.3333 32 53.3333 40" stroke="var(--stroke-0, #F4BF4F)" stroke-width="4" stroke-linecap="round" stroke-linejoin="round"/>
<path id="Vector_7" d="M21.3333 40H42.6667" stroke="var(--stroke-0, #F4BF4F)" stroke-width="4" stroke-linecap="round" stroke-linejoin="round"/>
<path id="Vector_8" d="M5.33333 58.6667V56C5.33333 54.5855 5.89524 53.229 6.89543 52.2288C7.89562 51.2286 9.25218 50.6667 10.6667 50.6667H21.3333C22.7478 50.6667 24.1044 51.2286 25.1046 52.2288C26.1048 53.229 26.6667 54.5855 26.6667 56V58.6667" stroke="var(--stroke-0, #F4BF4F)" stroke-width="4" stroke-linecap="round" stroke-linejoin="round"/>
<path id="Vector_9" d="M37.3333 58.6667V56C37.3333 54.5855 37.8952 53.229 38.8954 52.2288C39.8956 51.2286 41.2522 50.6667 42.6667 50.6667H53.3333C54.7478 50.6667 56.1044 51.2286 57.1046 52.2288C58.1048 53.229 58.6667 54.5855 58.6667 56V58.6667" stroke="var(--stroke-0, #F4BF4F)" stroke-width="4" stroke-linecap="round" stroke-linejoin="round"/>
</g>
</svg>
